<svg width="400" height="120" viewBox="0 0 400 120" fill="none" xmlns="http://www.w3.org/2000/svg">
<g clip-path="url(#clip0_42_2667)">
<path d="M400 0H0V120H400V0Z" fill="white"/>
<path d="M40 70C45.5228 70 50 65.5228 50 60C50 54.4772 45.5228 50 40 50C34.4772 50 30 54.4772 30 60C30 65.5228 34.4772 70 40 70Z" stroke="#004080" stroke-width="2"/>
<path d="M40 80C51.0457 80 60 71.0457 60 60C60 48.9543 51.0457 40 40 40C28.9543 40 20 48.9543 20 60C20 71.0457 28.9543 80 40 80Z" stroke="#004080" stroke-width="2"/>
<path d="M40 90C56.5685 90 70 76.5685 70 60C70 43.4315 56.5685 30 40 30C23.4315 30 10 43.4315 10 60C10 76.5685 23.4315 90 40 90Z" stroke="#004080" stroke-width="2"/>
<path d="M50 90C72.0914 90 90 76.5685 90 60C90 43.4315 72.0914 30 50 30C27.9086 30 10 43.4315 10 60C10 76.5685 27.9086 90 50 90Z" stroke="#004080" stroke-width="2"/>
<path d="M60 95C87.6142 95 110 79.33 110 60C110 40.67 87.6142 25 60 25C32.3858 25 10 40.67 10 60C10 79.33 32.3858 95 60 95Z" stroke="#004080" stroke-width="2"/>
<path d="M128.75 54H122.466V33.6364H129.028C131.004 33.6364 132.694 34.044 134.099 34.8594C135.505 35.6681 136.582 36.8314 137.331 38.3494C138.08 39.8608 138.455 41.6705 138.455 43.7784C138.455 45.8996 138.077 47.7259 137.321 49.2571C136.565 50.7817 135.465 51.955 134.02 52.777C132.575 53.5923 130.818 54 128.75 54ZM124.932 51.8125H128.591C130.275 51.8125 131.67 51.4877 132.777 50.8381C133.884 50.1884 134.709 49.2637 135.253 48.0639C135.796 46.8641 136.068 45.4356 136.068 43.7784C136.068 42.1345 135.8 40.7192 135.263 39.5327C134.726 38.3395 133.924 37.4247 132.857 36.7884C131.789 36.1454 130.46 35.8239 128.869 35.8239H124.932V51.8125ZM148.477 54.3182C147.098 54.3182 145.889 53.9901 144.848 53.3338C143.814 52.6776 143.005 51.7595 142.422 50.5795C141.845 49.3996 141.557 48.0208 141.557 46.4432C141.557 44.8523 141.845 43.4635 142.422 42.277C143.005 41.0904 143.814 40.169 144.848 39.5128C145.889 38.8565 147.098 38.5284 148.477 38.5284C149.856 38.5284 151.063 38.8565 152.097 39.5128C153.137 40.169 153.946 41.0904 154.523 42.277C155.106 43.4635 155.398 44.8523 155.398 46.4432C155.398 48.0208 155.106 49.3996 154.523 50.5795C153.946 51.7595 153.137 52.6776 152.097 53.3338C151.063 53.9901 149.856 54.3182 148.477 54.3182ZM148.477 52.2102C149.525 52.2102 150.386 51.9418 151.062 51.4048C151.739 50.8679 152.239 50.1619 152.564 49.2869C152.889 48.4119 153.051 47.464 153.051 46.4432C153.051 45.4223 152.889 44.4711 152.564 43.5895C152.239 42.7079 151.739 41.9953 151.062 41.4517C150.386 40.9081 149.525 40.6364 148.477 40.6364C147.43 40.6364 146.568 40.9081 145.892 41.4517C145.216 41.9953 144.715 42.7079 144.391 43.5895C144.066 44.4711 143.903 45.4223 143.903 46.4432C143.903 47.464 144.066 48.4119 144.391 49.2869C144.715 50.1619 145.216 50.8679 145.892 51.4048C146.568 51.9418 147.43 52.2102 148.477 52.2102ZM158.98 59.7273V38.7273H161.247V41.1534H161.525C161.698 40.8883 161.936 40.5502 162.241 40.1392C162.553 39.7216 162.997 39.3504 163.574 39.0256C164.157 38.6941 164.946 38.5284 165.94 38.5284C167.226 38.5284 168.359 38.8499 169.341 39.4929C170.322 40.1359 171.087 41.0473 171.637 42.2273C172.188 43.4072 172.463 44.7992 172.463 46.4034C172.463 48.0208 172.188 49.4228 171.637 50.6094C171.087 51.7893 170.325 52.7041 169.35 53.3537C168.376 53.9967 167.252 54.3182 165.98 54.3182C164.999 54.3182 164.213 54.1558 163.623 53.831C163.033 53.4995 162.579 53.125 162.261 52.7074C161.943 52.2831 161.698 51.9318 161.525 51.6534H161.326V59.7273H158.98ZM161.287 46.3636C161.287 47.517 161.456 48.5346 161.794 49.4162C162.132 50.2912 162.626 50.9773 163.275 51.4744C163.925 51.965 164.72 52.2102 165.662 52.2102C166.643 52.2102 167.461 51.9517 168.118 51.4347C168.78 50.911 169.278 50.2083 169.609 49.3267C169.947 48.4384 170.116 47.4508 170.116 46.3636C170.116 45.2898 169.95 44.322 169.619 43.4602C169.294 42.5919 168.8 41.9058 168.137 41.402C167.481 40.8916 166.656 40.6364 165.662 40.6364C164.707 40.6364 163.905 40.8783 163.255 41.3622C162.606 41.8395 162.115 42.509 161.784 43.3707C161.452 44.2259 161.287 45.2235 161.287 46.3636ZM176.042 59.7273V38.7273H178.309V41.1534H178.588C178.76 40.8883 178.999 40.5502 179.304 40.1392C179.615 39.7216 180.059 39.3504 180.636 39.0256C181.219 38.6941 182.008 38.5284 183.002 38.5284C184.288 38.5284 185.422 38.8499 186.403 39.4929C187.384 40.1359 188.15 41.0473 188.7 42.2273C189.25 43.4072 189.525 44.7992 189.525 46.4034C189.525 48.0208 189.25 49.4228 188.7 50.6094C188.15 51.7893 187.387 52.7041 186.413 53.3537C185.439 53.9967 184.315 54.3182 183.042 54.3182C182.061 54.3182 181.276 54.1558 180.686 53.831C180.096 53.4995 179.642 53.125 179.324 52.7074C179.005 52.2831 178.76 51.9318 178.588 51.6534H178.389V59.7273H176.042ZM178.349 46.3636C178.349 47.517 178.518 48.5346 178.856 49.4162C179.194 50.2912 179.688 50.9773 180.338 51.4744C180.987 51.965 181.783 52.2102 182.724 52.2102C183.705 52.2102 184.524 51.9517 185.18 51.4347C185.843 50.911 186.34 50.2083 186.672 49.3267C187.01 48.4384 187.179 47.4508 187.179 46.3636C187.179 45.2898 187.013 44.322 186.681 43.4602C186.357 42.5919 185.863 41.9058 185.2 41.402C184.544 40.8916 183.718 40.6364 182.724 40.6364C181.77 40.6364 180.967 40.8783 180.318 41.3622C179.668 41.8395 179.178 42.509 178.846 43.3707C178.515 44.2259 178.349 45.2235 178.349 46.3636ZM195.451 33.6364V54H193.105V33.6364H195.451ZM206.153 54.3182C204.681 54.3182 203.412 53.9934 202.344 53.3438C201.284 52.6875 200.465 51.7727 199.888 50.5994C199.318 49.4195 199.033 48.0473 199.033 46.483C199.033 44.9186 199.318 43.5398 199.888 42.3466C200.465 41.1468 201.267 40.2121 202.295 39.5426C203.329 38.8665 204.535 38.5284 205.914 38.5284C206.71 38.5284 207.495 38.661 208.271 38.9261C209.046 39.1913 209.752 39.6222 210.388 40.2188C211.025 40.8087 211.532 41.5909 211.91 42.5653C212.288 43.5398 212.477 44.7396 212.477 46.1648V47.1591H200.704V45.1307H210.09C210.09 44.2689 209.918 43.5 209.573 42.8239C209.235 42.1477 208.751 41.6141 208.121 41.223C207.498 40.8319 206.763 40.6364 205.914 40.6364C204.979 40.6364 204.171 40.8684 203.488 41.3324C202.812 41.7898 202.291 42.3864 201.927 43.1222C201.562 43.858 201.38 44.6468 201.38 45.4886V46.8409C201.38 47.9943 201.579 48.9721 201.977 49.7741C202.381 50.5696 202.941 51.1761 203.657 51.5938C204.373 52.0047 205.205 52.2102 206.153 52.2102C206.769 52.2102 207.326 52.1241 207.823 51.9517C208.327 51.7727 208.761 51.5076 209.126 51.1562C209.49 50.7983 209.772 50.3542 209.971 49.8239L212.238 50.4602C211.999 51.2292 211.598 51.9053 211.035 52.4886C210.471 53.0653 209.775 53.5161 208.947 53.8409C208.118 54.1591 207.187 54.3182 206.153 54.3182ZM216.046 54V38.7273H218.313V41.0341H218.472C218.751 40.2784 219.254 39.6652 219.984 39.1946C220.713 38.724 221.535 38.4886 222.45 38.4886C222.622 38.4886 222.837 38.4919 223.096 38.4986C223.354 38.5052 223.55 38.5152 223.683 38.5284V40.9148C223.603 40.8949 223.421 40.8651 223.136 40.8253C222.857 40.7789 222.562 40.7557 222.251 40.7557C221.508 40.7557 220.845 40.9115 220.262 41.223C219.685 41.5279 219.228 41.9522 218.89 42.4957C218.558 43.0327 218.393 43.6458 218.393 44.3352V54H216.046Z" fill="#004080"/>
<path d="M122.122 71.9091L126.009 82.929H126.162L130.048 71.9091H131.71L126.903 85H125.267L120.46 71.9091H122.122ZM136.747 85.2045C135.801 85.2045 134.985 84.9957 134.299 84.5781C133.617 84.1562 133.091 83.5682 132.72 82.8139C132.354 82.0554 132.17 81.1733 132.17 80.1676C132.17 79.1619 132.354 78.2756 132.72 77.5085C133.091 76.7372 133.607 76.1364 134.267 75.706C134.932 75.2713 135.707 75.054 136.594 75.054C137.105 75.054 137.61 75.1392 138.109 75.3097C138.607 75.4801 139.061 75.7571 139.47 76.1406C139.879 76.5199 140.205 77.0227 140.448 77.6491C140.691 78.2756 140.812 79.0469 140.812 79.9631V80.6023H133.244V79.2983H139.278C139.278 78.7443 139.168 78.25 138.946 77.8153C138.729 77.3807 138.418 77.0376 138.013 76.7862C137.612 76.5348 137.139 76.4091 136.594 76.4091C135.993 76.4091 135.473 76.5582 135.034 76.8565C134.599 77.1506 134.265 77.5341 134.031 78.0071C133.796 78.4801 133.679 78.9872 133.679 79.5284V80.3977C133.679 81.1392 133.807 81.7678 134.062 82.2834C134.322 82.7947 134.683 83.1847 135.143 83.4531C135.603 83.7173 136.138 83.8494 136.747 83.8494C137.143 83.8494 137.501 83.794 137.821 83.6832C138.145 83.5682 138.424 83.3977 138.658 83.1719C138.893 82.9418 139.074 82.6562 139.202 82.3153L140.659 82.7244C140.506 83.2188 140.248 83.6534 139.886 84.0284C139.523 84.3991 139.076 84.6889 138.543 84.8977C138.011 85.1023 137.412 85.2045 136.747 85.2045ZM143.107 85V75.1818H144.565V76.6648H144.667C144.846 76.179 145.17 75.7848 145.638 75.4822C146.107 75.1797 146.636 75.0284 147.224 75.0284C147.335 75.0284 147.473 75.0305 147.639 75.0348C147.805 75.0391 147.931 75.0455 148.016 75.054V76.5881C147.965 76.5753 147.848 76.5561 147.665 76.5305C147.486 76.5007 147.296 76.4858 147.096 76.4858C146.619 76.4858 146.192 76.5859 145.817 76.7862C145.447 76.9822 145.153 77.255 144.935 77.6044C144.722 77.9496 144.616 78.3437 144.616 78.7869V85H143.107ZM156.759 77.3807L155.404 77.7642C155.319 77.5384 155.193 77.3189 155.027 77.1058C154.865 76.8885 154.643 76.7095 154.362 76.5689C154.081 76.4283 153.721 76.358 153.282 76.358C152.681 76.358 152.18 76.4964 151.78 76.7734C151.383 77.0462 151.185 77.3935 151.185 77.8153C151.185 78.1903 151.322 78.4865 151.594 78.7038C151.867 78.9212 152.293 79.1023 152.873 79.2472L154.33 79.6051C155.208 79.8182 155.862 80.1442 156.292 80.5831C156.723 81.0178 156.938 81.5781 156.938 82.2642C156.938 82.8267 156.776 83.3295 156.452 83.7727C156.133 84.2159 155.685 84.5653 155.11 84.821C154.535 85.0767 153.866 85.2045 153.103 85.2045C152.101 85.2045 151.273 84.9872 150.616 84.5526C149.96 84.1179 149.545 83.483 149.37 82.6477L150.802 82.2898C150.938 82.8182 151.196 83.2145 151.575 83.4787C151.959 83.7429 152.459 83.875 153.077 83.875C153.78 83.875 154.339 83.7259 154.752 83.4276C155.17 83.125 155.378 82.7628 155.378 82.3409C155.378 82 155.259 81.7145 155.02 81.4844C154.782 81.25 154.415 81.0753 153.921 80.9602L152.285 80.5767C151.385 80.3636 150.725 80.0334 150.303 79.5859C149.885 79.1342 149.677 78.5696 149.677 77.892C149.677 77.3381 149.832 76.848 150.143 76.4219C150.459 75.9957 150.887 75.6612 151.428 75.4183C151.974 75.1754 152.591 75.054 153.282 75.054C154.253 75.054 155.016 75.267 155.57 75.6932C156.128 76.1193 156.525 76.6818 156.759 77.3807ZM159.209 85V75.1818H160.717V85H159.209ZM159.976 73.5455C159.682 73.5455 159.428 73.4453 159.215 73.245C159.006 73.0447 158.902 72.804 158.902 72.5227C158.902 72.2415 159.006 72.0007 159.215 71.8004C159.428 71.6001 159.682 71.5 159.976 71.5C160.27 71.5 160.521 71.6001 160.73 71.8004C160.943 72.0007 161.05 72.2415 161.05 72.5227C161.05 72.804 160.943 73.0447 160.73 73.245C160.521 73.4453 160.27 73.5455 159.976 73.5455ZM167.469 85.2045C166.548 85.2045 165.756 84.9872 165.091 84.5526C164.426 84.1179 163.915 83.5192 163.557 82.7564C163.199 81.9936 163.02 81.1222 163.02 80.142C163.02 79.1449 163.203 78.2649 163.57 77.5021C163.941 76.7351 164.456 76.1364 165.117 75.706C165.781 75.2713 166.557 75.054 167.443 75.054C168.134 75.054 168.756 75.1818 169.31 75.4375C169.864 75.6932 170.318 76.0511 170.671 76.5114C171.025 76.9716 171.244 77.5085 171.33 78.1222H169.821C169.706 77.6747 169.45 77.2784 169.054 76.9332C168.662 76.5838 168.134 76.4091 167.469 76.4091C166.881 76.4091 166.365 76.5625 165.922 76.8693C165.483 77.1719 165.14 77.6001 164.893 78.1541C164.65 78.7038 164.529 79.3494 164.529 80.0909C164.529 80.8494 164.648 81.5099 164.887 82.0724C165.129 82.6349 165.47 83.0717 165.909 83.3828C166.352 83.6939 166.872 83.8494 167.469 83.8494C167.861 83.8494 168.217 83.7812 168.536 83.6449C168.856 83.5085 169.127 83.3125 169.348 83.0568C169.57 82.8011 169.727 82.4943 169.821 82.1364H171.33C171.244 82.7159 171.034 83.2379 170.697 83.7024C170.365 84.1626 169.923 84.5291 169.374 84.8018C168.828 85.0703 168.193 85.2045 167.469 85.2045ZM175.044 79.0938V85H173.535V71.9091H175.044V76.7159H175.171C175.401 76.2088 175.747 75.8061 176.207 75.5078C176.671 75.2053 177.289 75.054 178.061 75.054C178.73 75.054 179.316 75.1882 179.818 75.4567C180.321 75.7209 180.711 76.1278 180.988 76.6776C181.269 77.223 181.41 77.9176 181.41 78.7614V85H179.901V78.8636C179.901 78.0838 179.699 77.4808 179.294 77.0547C178.894 76.6243 178.338 76.4091 177.626 76.4091C177.132 76.4091 176.688 76.5135 176.296 76.7223C175.909 76.9311 175.602 77.2358 175.376 77.6364C175.154 78.0369 175.044 78.5227 175.044 79.0938ZM188.286 85.2045C187.34 85.2045 186.524 84.9957 185.838 84.5781C185.156 84.1562 184.63 83.5682 184.259 82.8139C183.893 82.0554 183.71 81.1733 183.71 80.1676C183.71 79.1619 183.893 78.2756 184.259 77.5085C184.63 76.7372 185.146 76.1364 185.806 75.706C186.471 75.2713 187.246 75.054 188.133 75.054C188.644 75.054 189.149 75.1392 189.648 75.3097C190.146 75.4801 190.6 75.7571 191.009 76.1406C191.418 76.5199 191.744 77.0227 191.987 77.6491C192.23 78.2756 192.352 79.0469 192.352 79.9631V80.6023H184.783V79.2983H190.817C190.817 78.7443 190.707 78.25 190.485 77.8153C190.268 77.3807 189.957 77.0376 189.552 76.7862C189.151 76.5348 188.678 76.4091 188.133 76.4091C187.532 76.4091 187.012 76.5582 186.573 76.8565C186.138 77.1506 185.804 77.5341 185.57 78.0071C185.335 78.4801 185.218 78.9872 185.218 79.5284V80.3977C185.218 81.1392 185.346 81.7678 185.602 82.2834C185.862 82.7947 186.222 83.1847 186.682 83.4531C187.142 83.7173 187.677 83.8494 188.286 83.8494C188.683 83.8494 189.04 83.794 189.36 83.6832C189.684 83.5682 189.963 83.3977 190.197 83.1719C190.432 82.9418 190.613 82.6562 190.741 82.3153L192.198 82.7244C192.045 83.2188 191.787 83.6534 191.425 84.0284C191.063 84.3991 190.615 84.6889 190.082 84.8977C189.55 85.1023 188.951 85.2045 188.286 85.2045ZM194.646 85V75.1818H196.104V76.6648H196.206C196.385 76.179 196.709 75.7848 197.178 75.4822C197.646 75.1797 198.175 75.0284 198.763 75.0284C198.874 75.0284 199.012 75.0305 199.178 75.0348C199.344 75.0391 199.47 75.0455 199.555 75.054V76.5881C199.504 76.5753 199.387 76.5561 199.204 76.5305C199.025 76.5007 198.835 76.4858 198.635 76.4858C198.158 76.4858 197.732 76.5859 197.357 76.7862C196.986 76.9822 196.692 77.255 196.474 77.6044C196.261 77.9496 196.155 78.3437 196.155 78.7869V85H194.646ZM207.531 80.9858V75.1818H209.04V85H207.531V83.3381H207.429C207.199 83.8366 206.841 84.2607 206.355 84.6101C205.869 84.9553 205.256 85.1278 204.514 85.1278C203.9 85.1278 203.355 84.9936 202.878 84.7251C202.4 84.4524 202.025 84.0433 201.753 83.4979C201.48 82.9482 201.344 82.2557 201.344 81.4205V75.1818H202.852V81.3182C202.852 82.0341 203.052 82.6051 203.453 83.0312C203.858 83.4574 204.373 83.6705 205 83.6705C205.375 83.6705 205.756 83.5746 206.144 83.3828C206.536 83.1911 206.864 82.897 207.128 82.5007C207.397 82.1044 207.531 81.5994 207.531 80.9858ZM213.311 79.0938V85H211.803V75.1818H213.26V76.7159H213.388C213.618 76.2173 213.967 75.8168 214.436 75.5142C214.905 75.2074 215.51 75.054 216.251 75.054C216.916 75.054 217.498 75.1903 217.996 75.4631C218.495 75.7315 218.883 76.1406 219.16 76.6903C219.437 77.2358 219.575 77.9261 219.575 78.7614V85H218.067V78.8636C218.067 78.0923 217.866 77.4915 217.466 77.0611C217.065 76.6264 216.516 76.4091 215.817 76.4091C215.335 76.4091 214.905 76.5135 214.526 76.7223C214.151 76.9311 213.854 77.2358 213.637 77.6364C213.42 78.0369 213.311 78.5227 213.311 79.0938ZM226.295 88.8864C225.566 88.8864 224.94 88.7926 224.416 88.6051C223.892 88.4219 223.455 88.179 223.105 87.8764C222.76 87.5781 222.485 87.2585 222.281 86.9176L223.482 86.0739C223.619 86.2528 223.791 86.4574 224 86.6875C224.209 86.9219 224.494 87.1243 224.857 87.2947C225.223 87.4695 225.703 87.5568 226.295 87.5568C227.088 87.5568 227.742 87.3651 228.257 86.9815C228.773 86.598 229.031 85.9972 229.031 85.179V83.1847H228.903C228.792 83.3636 228.634 83.5852 228.43 83.8494C228.23 84.1094 227.94 84.3416 227.561 84.5462C227.186 84.7464 226.678 84.8466 226.039 84.8466C225.247 84.8466 224.535 84.6591 223.904 84.2841C223.278 83.9091 222.781 83.3636 222.415 82.6477C222.053 81.9318 221.872 81.0625 221.872 80.0398C221.872 79.0341 222.048 78.1584 222.402 77.4126C222.756 76.6626 223.248 76.0831 223.879 75.674C224.509 75.2607 225.238 75.054 226.065 75.054C226.704 75.054 227.211 75.1605 227.586 75.3736C227.965 75.5824 228.255 75.821 228.455 76.0895C228.66 76.3537 228.818 76.571 228.928 76.7415H229.082V75.1818H230.539V85.2812C230.539 86.125 230.347 86.8111 229.964 87.3395C229.585 87.8722 229.073 88.2621 228.43 88.5092C227.791 88.7607 227.079 88.8864 226.295 88.8864ZM226.244 83.4915C226.849 83.4915 227.36 83.353 227.778 83.076C228.195 82.799 228.513 82.4006 228.73 81.8807C228.948 81.3608 229.056 80.7386 229.056 80.0142C229.056 79.3068 228.95 78.6825 228.737 78.1413C228.524 77.6001 228.208 77.1761 227.791 76.8693C227.373 76.5625 226.857 76.4091 226.244 76.4091C225.605 76.4091 225.072 76.571 224.646 76.8949C224.224 77.2187 223.906 77.6534 223.693 78.1989C223.485 78.7443 223.38 79.3494 223.38 80.0142C223.38 80.696 223.487 81.299 223.7 81.8232C223.917 82.343 224.237 82.7521 224.659 83.0504C225.085 83.3445 225.613 83.4915 226.244 83.4915ZM239.105 85H237.443L242.249 71.9091H243.886L248.693 85H247.031L243.119 73.9801H243.017L239.105 85ZM239.718 79.8864H246.417V81.2926H239.718V79.8864ZM259.065 76C258.925 75.5696 258.739 75.1839 258.509 74.843C258.283 74.4979 258.013 74.2038 257.697 73.9609C257.386 73.718 257.033 73.5327 256.636 73.4048C256.24 73.277 255.805 73.2131 255.332 73.2131C254.557 73.2131 253.852 73.4134 253.217 73.8139C252.582 74.2145 252.077 74.8047 251.702 75.5845C251.327 76.3643 251.139 77.321 251.139 78.4545C251.139 79.5881 251.329 80.5447 251.708 81.3246C252.087 82.1044 252.601 82.6946 253.249 83.0952C253.896 83.4957 254.625 83.696 255.435 83.696C256.185 83.696 256.845 83.5362 257.416 83.2166C257.991 82.8928 258.439 82.4368 258.759 81.8487C259.082 81.2564 259.244 80.5597 259.244 79.7585L259.73 79.8608H255.793V78.4545H260.778V79.8608C260.778 80.9389 260.548 81.8764 260.088 82.6733C259.632 83.4702 259.001 84.0881 258.196 84.527C257.395 84.9616 256.474 85.179 255.435 85.179C254.276 85.179 253.257 84.9062 252.379 84.3608C251.506 83.8153 250.824 83.0398 250.334 82.0341C249.848 81.0284 249.605 79.8352 249.605 78.4545C249.605 77.419 249.744 76.4879 250.021 75.6612C250.302 74.8303 250.698 74.1229 251.21 73.5391C251.721 72.9553 252.326 72.5078 253.025 72.1967C253.724 71.8857 254.493 71.7301 255.332 71.7301C256.023 71.7301 256.666 71.8345 257.263 72.0433C257.864 72.2479 258.398 72.5398 258.867 72.919C259.34 73.294 259.734 73.7436 260.05 74.2678C260.365 74.7876 260.582 75.3651 260.702 76H259.065Z" fill="#333333"/>
</g>
<defs>
<clipPath id="clip0_42_2667">
<rect width="400" height="120" fill="white"/>
</clipPath>
</defs>
</svg>
