<svg width="1138" height="634" viewBox="0 0 1138 634" fill="none" xmlns="http://www.w3.org/2000/svg">
<rect width="1138" height="634" fill="#EDEBEB"/>
<rect x="0.5" y="0.5" width="404" height="242" fill="white" stroke="black"/>
<rect x="16.5" y="113.5" width="109" height="63" rx="4.5" transform="rotate(-90 16.5 113.5)" fill="#CD0F12" stroke="black"/>
<rect x="16.5" y="237.5" width="109" height="63" rx="4.5" transform="rotate(-90 16.5 237.5)" fill="#29A21E" stroke="black"/>
<path d="M282.5 109V9C282.5 6.51472 284.515 4.5 287 4.5H341C343.485 4.5 345.5 6.51472 345.5 9V109C345.5 111.485 343.485 113.5 341 113.5H287C284.515 113.5 282.5 111.485 282.5 109Z" fill="#29A21E" stroke="black"/>
<rect x="212.5" y="113.5" width="109" height="63" rx="4.5" transform="rotate(-90 212.5 113.5)" fill="#CD0F12" stroke="black"/>
<path d="M308.995 223V211.364H312.927C313.836 211.364 314.582 211.519 315.165 211.83C315.749 212.136 316.181 212.559 316.461 213.097C316.741 213.634 316.881 214.246 316.881 214.932C316.881 215.617 316.741 216.225 316.461 216.756C316.181 217.286 315.751 217.703 315.171 218.006C314.592 218.305 313.851 218.455 312.95 218.455H309.768V217.182H312.904C313.525 217.182 314.025 217.091 314.404 216.909C314.787 216.727 315.063 216.47 315.234 216.136C315.408 215.799 315.495 215.398 315.495 214.932C315.495 214.466 315.408 214.059 315.234 213.71C315.059 213.362 314.781 213.093 314.398 212.903C314.016 212.71 313.51 212.614 312.881 212.614H310.404V223H308.995ZM314.472 217.773L317.336 223H315.7L312.881 217.773H314.472ZM321.616 223.205C321.063 223.205 320.561 223.1 320.11 222.892C319.659 222.68 319.301 222.375 319.036 221.977C318.771 221.576 318.638 221.091 318.638 220.523C318.638 220.023 318.737 219.617 318.934 219.307C319.131 218.992 319.394 218.746 319.724 218.568C320.053 218.39 320.417 218.258 320.815 218.17C321.216 218.08 321.62 218.008 322.025 217.955C322.555 217.886 322.985 217.835 323.315 217.801C323.648 217.763 323.89 217.701 324.042 217.614C324.197 217.527 324.275 217.375 324.275 217.159V217.114C324.275 216.553 324.121 216.117 323.815 215.807C323.512 215.496 323.051 215.341 322.434 215.341C321.794 215.341 321.292 215.481 320.928 215.761C320.565 216.042 320.309 216.341 320.161 216.659L318.888 216.205C319.116 215.674 319.419 215.261 319.798 214.966C320.18 214.667 320.597 214.458 321.048 214.341C321.502 214.22 321.949 214.159 322.388 214.159C322.669 214.159 322.991 214.193 323.354 214.261C323.722 214.326 324.076 214.46 324.417 214.665C324.762 214.869 325.048 215.178 325.275 215.591C325.502 216.004 325.616 216.557 325.616 217.25V223H324.275V221.818H324.207C324.116 222.008 323.964 222.21 323.752 222.426C323.54 222.642 323.258 222.826 322.906 222.977C322.553 223.129 322.123 223.205 321.616 223.205ZM321.82 222C322.351 222 322.798 221.896 323.161 221.688C323.529 221.479 323.805 221.21 323.991 220.881C324.18 220.551 324.275 220.205 324.275 219.841V218.614C324.218 218.682 324.093 218.744 323.9 218.801C323.71 218.854 323.491 218.902 323.241 218.943C322.995 218.981 322.754 219.015 322.519 219.045C322.288 219.072 322.101 219.095 321.957 219.114C321.608 219.159 321.282 219.233 320.979 219.335C320.68 219.434 320.438 219.583 320.252 219.784C320.07 219.981 319.979 220.25 319.979 220.591C319.979 221.057 320.152 221.409 320.496 221.648C320.845 221.883 321.286 222 321.82 222ZM333.563 219.432V214.273H334.904V223H333.563V221.523H333.472C333.268 221.966 332.95 222.343 332.518 222.653C332.086 222.96 331.54 223.114 330.881 223.114C330.336 223.114 329.851 222.994 329.427 222.756C329.003 222.513 328.669 222.15 328.427 221.665C328.184 221.176 328.063 220.561 328.063 219.818V214.273H329.404V219.727C329.404 220.364 329.582 220.871 329.938 221.25C330.298 221.629 330.756 221.818 331.313 221.818C331.647 221.818 331.986 221.733 332.33 221.562C332.679 221.392 332.97 221.131 333.205 220.778C333.444 220.426 333.563 219.977 333.563 219.432ZM337.36 223V214.273H338.656V215.636H338.769C338.951 215.17 339.245 214.809 339.65 214.551C340.055 214.29 340.542 214.159 341.11 214.159C341.686 214.159 342.165 214.29 342.548 214.551C342.934 214.809 343.235 215.17 343.451 215.636H343.542C343.765 215.186 344.101 214.828 344.548 214.562C344.995 214.294 345.531 214.159 346.156 214.159C346.936 214.159 347.574 214.403 348.07 214.892C348.567 215.377 348.815 216.133 348.815 217.159V223H347.474V217.159C347.474 216.515 347.298 216.055 346.945 215.778C346.593 215.502 346.178 215.364 345.701 215.364C345.087 215.364 344.612 215.549 344.275 215.92C343.938 216.288 343.769 216.754 343.769 217.318V223H342.406V217.023C342.406 216.527 342.245 216.127 341.923 215.824C341.601 215.517 341.186 215.364 340.678 215.364C340.33 215.364 340.004 215.456 339.701 215.642C339.402 215.828 339.159 216.085 338.974 216.415C338.792 216.741 338.701 217.117 338.701 217.545V223H337.36ZM359.835 211.364V223H358.425V212.841H358.357L355.516 214.727V213.295L358.425 211.364H359.835ZM366.977 223.159C366.121 223.159 365.391 222.926 364.789 222.46C364.187 221.991 363.727 221.311 363.408 220.42C363.09 219.527 362.931 218.447 362.931 217.182C362.931 215.924 363.09 214.85 363.408 213.96C363.73 213.066 364.192 212.384 364.795 211.915C365.401 211.441 366.128 211.205 366.977 211.205C367.825 211.205 368.55 211.441 369.153 211.915C369.759 212.384 370.221 213.066 370.539 213.96C370.861 214.85 371.022 215.924 371.022 217.182C371.022 218.447 370.863 219.527 370.545 220.42C370.227 221.311 369.766 221.991 369.164 222.46C368.562 222.926 367.833 223.159 366.977 223.159ZM366.977 221.909C367.825 221.909 368.484 221.5 368.954 220.682C369.424 219.864 369.658 218.697 369.658 217.182C369.658 216.174 369.55 215.316 369.335 214.608C369.122 213.9 368.816 213.36 368.414 212.989C368.016 212.617 367.537 212.432 366.977 212.432C366.136 212.432 365.478 212.847 365.005 213.676C364.531 214.502 364.295 215.67 364.295 217.182C364.295 218.189 364.401 219.045 364.613 219.75C364.825 220.455 365.13 220.991 365.528 221.358C365.929 221.725 366.412 221.909 366.977 221.909ZM377.272 211.364V223H375.863V212.841H375.795L372.954 214.727V213.295L375.863 211.364H377.272Z" fill="black"/>
<rect x="520.5" y="0.5" width="617" height="296" fill="white" stroke="black"/>
<rect x="584.5" y="118.5" width="109" height="63" rx="4.5" transform="rotate(-90 584.5 118.5)" fill="#CD0F12" stroke="black"/>
<rect x="655.5" y="118.5" width="109" height="63" rx="4.5" transform="rotate(-90 655.5 118.5)" fill="#CD0F12" stroke="black"/>
<rect x="818.5" y="118.5" width="109" height="63" rx="4.5" transform="rotate(-90 818.5 118.5)" fill="#29A21E" stroke="black"/>
<rect x="818.5" y="284.5" width="109" height="63" rx="4.5" transform="rotate(-90 818.5 284.5)" fill="#29A21E" stroke="black"/>
<rect x="889.5" y="118.5" width="109" height="63" rx="4.5" transform="rotate(-90 889.5 118.5)" fill="#29A21E" stroke="black"/>
<rect x="1061.5" y="118.5" width="109" height="63" rx="4.5" transform="rotate(-90 1061.5 118.5)" fill="#CD0F12" stroke="black"/>
<rect x="1061.5" y="284.5" width="109" height="63" rx="4.5" transform="rotate(-90 1061.5 284.5)" fill="#CD0F12" stroke="black"/>
<rect x="584.5" y="284.5" width="109" height="63" rx="4.5" transform="rotate(-90 584.5 284.5)" fill="#CD0F12" stroke="black"/>
<rect x="889.5" y="284.5" width="109" height="63" rx="4.5" transform="rotate(-90 889.5 284.5)" fill="#29A21E" stroke="black"/>
<path d="M688.87 270V258.364H692.802C693.711 258.364 694.457 258.519 695.04 258.83C695.624 259.136 696.056 259.559 696.336 260.097C696.616 260.634 696.756 261.246 696.756 261.932C696.756 262.617 696.616 263.225 696.336 263.756C696.056 264.286 695.626 264.703 695.046 265.006C694.467 265.305 693.726 265.455 692.825 265.455H689.643V264.182H692.779C693.4 264.182 693.9 264.091 694.279 263.909C694.662 263.727 694.938 263.47 695.109 263.136C695.283 262.799 695.37 262.398 695.37 261.932C695.37 261.466 695.283 261.059 695.109 260.71C694.934 260.362 694.656 260.093 694.273 259.903C693.891 259.71 693.385 259.614 692.756 259.614H690.279V270H688.87ZM694.347 264.773L697.211 270H695.575L692.756 264.773H694.347ZM701.491 270.205C700.938 270.205 700.436 270.1 699.985 269.892C699.534 269.68 699.176 269.375 698.911 268.977C698.646 268.576 698.513 268.091 698.513 267.523C698.513 267.023 698.612 266.617 698.809 266.307C699.006 265.992 699.269 265.746 699.599 265.568C699.928 265.39 700.292 265.258 700.69 265.17C701.091 265.08 701.495 265.008 701.9 264.955C702.43 264.886 702.86 264.835 703.19 264.801C703.523 264.763 703.765 264.701 703.917 264.614C704.072 264.527 704.15 264.375 704.15 264.159V264.114C704.15 263.553 703.996 263.117 703.69 262.807C703.387 262.496 702.926 262.341 702.309 262.341C701.669 262.341 701.167 262.481 700.803 262.761C700.44 263.042 700.184 263.341 700.036 263.659L698.763 263.205C698.991 262.674 699.294 262.261 699.673 261.966C700.055 261.667 700.472 261.458 700.923 261.341C701.377 261.22 701.824 261.159 702.263 261.159C702.544 261.159 702.866 261.193 703.229 261.261C703.597 261.326 703.951 261.46 704.292 261.665C704.637 261.869 704.923 262.178 705.15 262.591C705.377 263.004 705.491 263.557 705.491 264.25V270H704.15V268.818H704.082C703.991 269.008 703.839 269.21 703.627 269.426C703.415 269.642 703.133 269.826 702.781 269.977C702.428 270.129 701.998 270.205 701.491 270.205ZM701.695 269C702.226 269 702.673 268.896 703.036 268.688C703.404 268.479 703.68 268.21 703.866 267.881C704.055 267.551 704.15 267.205 704.15 266.841V265.614C704.093 265.682 703.968 265.744 703.775 265.801C703.585 265.854 703.366 265.902 703.116 265.943C702.87 265.981 702.629 266.015 702.394 266.045C702.163 266.072 701.976 266.095 701.832 266.114C701.483 266.159 701.157 266.233 700.854 266.335C700.555 266.434 700.313 266.583 700.127 266.784C699.945 266.981 699.854 267.25 699.854 267.591C699.854 268.057 700.027 268.409 700.371 268.648C700.72 268.883 701.161 269 701.695 269ZM713.438 266.432V261.273H714.779V270H713.438V268.523H713.347C713.143 268.966 712.825 269.343 712.393 269.653C711.961 269.96 711.415 270.114 710.756 270.114C710.211 270.114 709.726 269.994 709.302 269.756C708.878 269.513 708.544 269.15 708.302 268.665C708.059 268.176 707.938 267.561 707.938 266.818V261.273H709.279V266.727C709.279 267.364 709.457 267.871 709.813 268.25C710.173 268.629 710.631 268.818 711.188 268.818C711.522 268.818 711.861 268.733 712.205 268.562C712.554 268.392 712.845 268.131 713.08 267.778C713.319 267.426 713.438 266.977 713.438 266.432ZM717.235 270V261.273H718.531V262.636H718.644C718.826 262.17 719.12 261.809 719.525 261.551C719.93 261.29 720.417 261.159 720.985 261.159C721.561 261.159 722.04 261.29 722.423 261.551C722.809 261.809 723.11 262.17 723.326 262.636H723.417C723.64 262.186 723.976 261.828 724.423 261.562C724.87 261.294 725.406 261.159 726.031 261.159C726.811 261.159 727.449 261.403 727.945 261.892C728.442 262.377 728.69 263.133 728.69 264.159V270H727.349V264.159C727.349 263.515 727.173 263.055 726.82 262.778C726.468 262.502 726.053 262.364 725.576 262.364C724.962 262.364 724.487 262.549 724.15 262.92C723.813 263.288 723.644 263.754 723.644 264.318V270H722.281V264.023C722.281 263.527 722.12 263.127 721.798 262.824C721.476 262.517 721.061 262.364 720.553 262.364C720.205 262.364 719.879 262.456 719.576 262.642C719.277 262.828 719.034 263.085 718.849 263.415C718.667 263.741 718.576 264.117 718.576 264.545V270H717.235ZM739.71 258.364V270H738.3V259.841H738.232L735.391 261.727V260.295L738.3 258.364H739.71ZM746.852 270.159C745.996 270.159 745.266 269.926 744.664 269.46C744.062 268.991 743.602 268.311 743.283 267.42C742.965 266.527 742.806 265.447 742.806 264.182C742.806 262.924 742.965 261.85 743.283 260.96C743.605 260.066 744.067 259.384 744.67 258.915C745.276 258.441 746.003 258.205 746.852 258.205C747.7 258.205 748.425 258.441 749.028 258.915C749.634 259.384 750.096 260.066 750.414 260.96C750.736 261.85 750.897 262.924 750.897 264.182C750.897 265.447 750.738 266.527 750.42 267.42C750.102 268.311 749.641 268.991 749.039 269.46C748.437 269.926 747.708 270.159 746.852 270.159ZM746.852 268.909C747.7 268.909 748.359 268.5 748.829 267.682C749.299 266.864 749.533 265.697 749.533 264.182C749.533 263.174 749.425 262.316 749.21 261.608C748.997 260.9 748.691 260.36 748.289 259.989C747.891 259.617 747.412 259.432 746.852 259.432C746.011 259.432 745.353 259.847 744.88 260.676C744.406 261.502 744.17 262.67 744.17 264.182C744.17 265.189 744.276 266.045 744.488 266.75C744.7 267.455 745.005 267.991 745.403 268.358C745.804 268.725 746.287 268.909 746.852 268.909ZM753.056 270V268.977L756.897 264.773C757.348 264.28 757.719 263.852 758.011 263.489C758.302 263.121 758.518 262.777 758.658 262.455C758.802 262.129 758.874 261.788 758.874 261.432C758.874 261.023 758.776 260.669 758.579 260.369C758.386 260.07 758.121 259.839 757.783 259.676C757.446 259.513 757.067 259.432 756.647 259.432C756.2 259.432 755.81 259.525 755.477 259.71C755.147 259.892 754.891 260.148 754.71 260.477C754.531 260.807 754.442 261.193 754.442 261.636H753.102C753.102 260.955 753.259 260.356 753.573 259.841C753.888 259.326 754.316 258.924 754.857 258.636C755.403 258.348 756.014 258.205 756.692 258.205C757.374 258.205 757.978 258.348 758.505 258.636C759.031 258.924 759.444 259.312 759.744 259.801C760.043 260.29 760.192 260.833 760.192 261.432C760.192 261.86 760.115 262.278 759.96 262.688C759.808 263.093 759.543 263.545 759.164 264.045C758.789 264.542 758.268 265.148 757.602 265.864L754.988 268.659V268.75H760.397V270H753.056Z" fill="black"/>
<rect x="0.5" y="391.5" width="562" height="242" fill="white" stroke="black"/>
<rect x="32.5" y="443.5" width="109" height="63" rx="4.5" fill="#29A21E" stroke="black"/>
<rect x="410.5" y="443.5" width="109" height="63" rx="4.5" fill="#29A21E" stroke="black"/>
<rect x="410.5" y="518.5" width="109" height="63" rx="4.5" fill="#CD0F12" stroke="black"/>
<rect x="146.5" y="443.5" width="109" height="63" rx="4.5" fill="#29A21E" stroke="black"/>
<rect x="146.5" y="518.5" width="109" height="63" rx="4.5" fill="#29A21E" stroke="black"/>
<rect x="32.5" y="518.5" width="109" height="63" rx="4.5" fill="#29A21E" stroke="black"/>
<path d="M446.62 421V409.364H450.552C451.461 409.364 452.207 409.519 452.79 409.83C453.374 410.136 453.806 410.559 454.086 411.097C454.366 411.634 454.506 412.246 454.506 412.932C454.506 413.617 454.366 414.225 454.086 414.756C453.806 415.286 453.376 415.703 452.796 416.006C452.217 416.305 451.476 416.455 450.575 416.455H447.393V415.182H450.529C451.15 415.182 451.65 415.091 452.029 414.909C452.412 414.727 452.688 414.47 452.859 414.136C453.033 413.799 453.12 413.398 453.12 412.932C453.12 412.466 453.033 412.059 452.859 411.71C452.684 411.362 452.406 411.093 452.023 410.903C451.641 410.71 451.135 410.614 450.506 410.614H448.029V421H446.62ZM452.097 415.773L454.961 421H453.325L450.506 415.773H452.097ZM459.241 421.205C458.688 421.205 458.186 421.1 457.735 420.892C457.284 420.68 456.926 420.375 456.661 419.977C456.396 419.576 456.263 419.091 456.263 418.523C456.263 418.023 456.362 417.617 456.559 417.307C456.756 416.992 457.019 416.746 457.349 416.568C457.678 416.39 458.042 416.258 458.44 416.17C458.841 416.08 459.245 416.008 459.65 415.955C460.18 415.886 460.61 415.835 460.94 415.801C461.273 415.763 461.515 415.701 461.667 415.614C461.822 415.527 461.9 415.375 461.9 415.159V415.114C461.9 414.553 461.746 414.117 461.44 413.807C461.137 413.496 460.676 413.341 460.059 413.341C459.419 413.341 458.917 413.481 458.553 413.761C458.19 414.042 457.934 414.341 457.786 414.659L456.513 414.205C456.741 413.674 457.044 413.261 457.423 412.966C457.805 412.667 458.222 412.458 458.673 412.341C459.127 412.22 459.574 412.159 460.013 412.159C460.294 412.159 460.616 412.193 460.979 412.261C461.347 412.326 461.701 412.46 462.042 412.665C462.387 412.869 462.673 413.178 462.9 413.591C463.127 414.004 463.241 414.557 463.241 415.25V421H461.9V419.818H461.832C461.741 420.008 461.589 420.21 461.377 420.426C461.165 420.642 460.883 420.826 460.531 420.977C460.178 421.129 459.748 421.205 459.241 421.205ZM459.445 420C459.976 420 460.423 419.896 460.786 419.688C461.154 419.479 461.43 419.21 461.616 418.881C461.805 418.551 461.9 418.205 461.9 417.841V416.614C461.843 416.682 461.718 416.744 461.525 416.801C461.335 416.854 461.116 416.902 460.866 416.943C460.62 416.981 460.379 417.015 460.144 417.045C459.913 417.072 459.726 417.095 459.582 417.114C459.233 417.159 458.907 417.233 458.604 417.335C458.305 417.434 458.063 417.583 457.877 417.784C457.695 417.981 457.604 418.25 457.604 418.591C457.604 419.057 457.777 419.409 458.121 419.648C458.47 419.883 458.911 420 459.445 420ZM471.188 417.432V412.273H472.529V421H471.188V419.523H471.097C470.893 419.966 470.575 420.343 470.143 420.653C469.711 420.96 469.165 421.114 468.506 421.114C467.961 421.114 467.476 420.994 467.052 420.756C466.628 420.513 466.294 420.15 466.052 419.665C465.809 419.176 465.688 418.561 465.688 417.818V412.273H467.029V417.727C467.029 418.364 467.207 418.871 467.563 419.25C467.923 419.629 468.381 419.818 468.938 419.818C469.272 419.818 469.611 419.733 469.955 419.562C470.304 419.392 470.595 419.131 470.83 418.778C471.069 418.426 471.188 417.977 471.188 417.432ZM474.985 421V412.273H476.281V413.636H476.394C476.576 413.17 476.87 412.809 477.275 412.551C477.68 412.29 478.167 412.159 478.735 412.159C479.311 412.159 479.79 412.29 480.173 412.551C480.559 412.809 480.86 413.17 481.076 413.636H481.167C481.39 413.186 481.726 412.828 482.173 412.562C482.62 412.294 483.156 412.159 483.781 412.159C484.561 412.159 485.199 412.403 485.695 412.892C486.192 413.377 486.44 414.133 486.44 415.159V421H485.099V415.159C485.099 414.515 484.923 414.055 484.57 413.778C484.218 413.502 483.803 413.364 483.326 413.364C482.712 413.364 482.237 413.549 481.9 413.92C481.563 414.288 481.394 414.754 481.394 415.318V421H480.031V415.023C480.031 414.527 479.87 414.127 479.548 413.824C479.226 413.517 478.811 413.364 478.303 413.364C477.955 413.364 477.629 413.456 477.326 413.642C477.027 413.828 476.784 414.085 476.599 414.415C476.417 414.741 476.326 415.117 476.326 415.545V421H474.985ZM497.46 409.364V421H496.05V410.841H495.982L493.141 412.727V411.295L496.05 409.364H497.46ZM504.602 421.159C503.746 421.159 503.016 420.926 502.414 420.46C501.812 419.991 501.352 419.311 501.033 418.42C500.715 417.527 500.556 416.447 500.556 415.182C500.556 413.924 500.715 412.85 501.033 411.96C501.355 411.066 501.817 410.384 502.42 409.915C503.026 409.441 503.753 409.205 504.602 409.205C505.45 409.205 506.175 409.441 506.778 409.915C507.384 410.384 507.846 411.066 508.164 411.96C508.486 412.85 508.647 413.924 508.647 415.182C508.647 416.447 508.488 417.527 508.17 418.42C507.852 419.311 507.391 419.991 506.789 420.46C506.187 420.926 505.458 421.159 504.602 421.159ZM504.602 419.909C505.45 419.909 506.109 419.5 506.579 418.682C507.049 417.864 507.283 416.697 507.283 415.182C507.283 414.174 507.175 413.316 506.96 412.608C506.747 411.9 506.441 411.36 506.039 410.989C505.641 410.617 505.162 410.432 504.602 410.432C503.761 410.432 503.103 410.847 502.63 411.676C502.156 412.502 501.92 413.67 501.92 415.182C501.92 416.189 502.026 417.045 502.238 417.75C502.45 418.455 502.755 418.991 503.153 419.358C503.554 419.725 504.037 419.909 504.602 419.909ZM514.738 421.159C513.988 421.159 513.319 421.03 512.732 420.773C512.149 420.515 511.685 420.157 511.34 419.699C510.999 419.237 510.814 418.701 510.783 418.091H512.215C512.246 418.466 512.374 418.79 512.602 419.062C512.829 419.331 513.126 419.54 513.494 419.688C513.861 419.835 514.268 419.909 514.715 419.909C515.215 419.909 515.658 419.822 516.045 419.648C516.431 419.473 516.734 419.231 516.954 418.92C517.174 418.61 517.283 418.25 517.283 417.841C517.283 417.413 517.177 417.036 516.965 416.71C516.753 416.381 516.442 416.123 516.033 415.938C515.624 415.752 515.124 415.659 514.533 415.659H513.602V414.409H514.533C514.996 414.409 515.401 414.326 515.749 414.159C516.102 413.992 516.376 413.758 516.573 413.455C516.774 413.152 516.874 412.795 516.874 412.386C516.874 411.992 516.787 411.65 516.613 411.358C516.439 411.066 516.192 410.839 515.874 410.676C515.56 410.513 515.189 410.432 514.761 410.432C514.359 410.432 513.98 410.506 513.624 410.653C513.272 410.797 512.984 411.008 512.761 411.284C512.537 411.557 512.416 411.886 512.397 412.273H511.033C511.056 411.663 511.24 411.129 511.585 410.67C511.929 410.208 512.38 409.848 512.937 409.591C513.497 409.333 514.113 409.205 514.783 409.205C515.503 409.205 516.121 409.35 516.636 409.642C517.151 409.93 517.547 410.311 517.823 410.784C518.1 411.258 518.238 411.769 518.238 412.318C518.238 412.973 518.066 413.532 517.721 413.994C517.38 414.456 516.916 414.777 516.329 414.955V415.045C517.064 415.167 517.638 415.479 518.05 415.983C518.463 416.483 518.67 417.102 518.67 417.841C518.67 418.473 518.497 419.042 518.153 419.545C517.812 420.045 517.346 420.439 516.755 420.727C516.164 421.015 515.492 421.159 514.738 421.159Z" fill="black"/>
<rect x="562.5" y="391.5" width="575" height="242" fill="white" stroke="black"/>
<rect x="616.5" y="450.5" width="377" height="124" rx="62" fill="#CD0F12" stroke="black"/>
<rect x="1093.5" y="415.5" width="11" height="195" fill="#898989" stroke="black"/>
<path d="M601.581 421V409.364H605.513C606.422 409.364 607.168 409.519 607.751 409.83C608.335 410.136 608.767 410.559 609.047 411.097C609.327 411.634 609.467 412.246 609.467 412.932C609.467 413.617 609.327 414.225 609.047 414.756C608.767 415.286 608.337 415.703 607.757 416.006C607.178 416.305 606.437 416.455 605.536 416.455H602.354V415.182H605.49C606.111 415.182 606.611 415.091 606.99 414.909C607.373 414.727 607.649 414.47 607.82 414.136C607.994 413.799 608.081 413.398 608.081 412.932C608.081 412.466 607.994 412.059 607.82 411.71C607.645 411.362 607.367 411.093 606.984 410.903C606.602 410.71 606.096 410.614 605.467 410.614H602.99V421H601.581ZM607.058 415.773L609.922 421H608.286L605.467 415.773H607.058ZM614.202 421.205C613.649 421.205 613.147 421.1 612.696 420.892C612.245 420.68 611.887 420.375 611.622 419.977C611.357 419.576 611.224 419.091 611.224 418.523C611.224 418.023 611.323 417.617 611.52 417.307C611.717 416.992 611.98 416.746 612.31 416.568C612.639 416.39 613.003 416.258 613.401 416.17C613.802 416.08 614.205 416.008 614.611 415.955C615.141 415.886 615.571 415.835 615.901 415.801C616.234 415.763 616.476 415.701 616.628 415.614C616.783 415.527 616.861 415.375 616.861 415.159V415.114C616.861 414.553 616.707 414.117 616.401 413.807C616.098 413.496 615.637 413.341 615.02 413.341C614.38 413.341 613.878 413.481 613.514 413.761C613.151 414.042 612.895 414.341 612.747 414.659L611.474 414.205C611.702 413.674 612.005 413.261 612.384 412.966C612.766 412.667 613.183 412.458 613.634 412.341C614.088 412.22 614.535 412.159 614.974 412.159C615.255 412.159 615.577 412.193 615.94 412.261C616.308 412.326 616.662 412.46 617.003 412.665C617.348 412.869 617.634 413.178 617.861 413.591C618.088 414.004 618.202 414.557 618.202 415.25V421H616.861V419.818H616.793C616.702 420.008 616.55 420.21 616.338 420.426C616.126 420.642 615.844 420.826 615.491 420.977C615.139 421.129 614.709 421.205 614.202 421.205ZM614.406 420C614.937 420 615.384 419.896 615.747 419.688C616.115 419.479 616.391 419.21 616.577 418.881C616.766 418.551 616.861 418.205 616.861 417.841V416.614C616.804 416.682 616.679 416.744 616.486 416.801C616.296 416.854 616.077 416.902 615.827 416.943C615.58 416.981 615.34 417.015 615.105 417.045C614.874 417.072 614.687 417.095 614.543 417.114C614.194 417.159 613.868 417.233 613.565 417.335C613.266 417.434 613.024 417.583 612.838 417.784C612.656 417.981 612.565 418.25 612.565 418.591C612.565 419.057 612.738 419.409 613.082 419.648C613.431 419.883 613.872 420 614.406 420ZM626.149 417.432V412.273H627.49V421H626.149V419.523H626.058C625.854 419.966 625.536 420.343 625.104 420.653C624.672 420.96 624.126 421.114 623.467 421.114C622.922 421.114 622.437 420.994 622.013 420.756C621.589 420.513 621.255 420.15 621.013 419.665C620.77 419.176 620.649 418.561 620.649 417.818V412.273H621.99V417.727C621.99 418.364 622.168 418.871 622.524 419.25C622.884 419.629 623.342 419.818 623.899 419.818C624.232 419.818 624.571 419.733 624.916 419.562C625.265 419.392 625.556 419.131 625.791 418.778C626.03 418.426 626.149 417.977 626.149 417.432ZM629.946 421V412.273H631.241V413.636H631.355C631.537 413.17 631.83 412.809 632.236 412.551C632.641 412.29 633.128 412.159 633.696 412.159C634.272 412.159 634.751 412.29 635.134 412.551C635.52 412.809 635.821 413.17 636.037 413.636H636.128C636.351 413.186 636.687 412.828 637.134 412.562C637.58 412.294 638.116 412.159 638.741 412.159C639.522 412.159 640.16 412.403 640.656 412.892C641.152 413.377 641.401 414.133 641.401 415.159V421H640.06V415.159C640.06 414.515 639.884 414.055 639.531 413.778C639.179 413.502 638.764 413.364 638.287 413.364C637.673 413.364 637.198 413.549 636.861 413.92C636.524 414.288 636.355 414.754 636.355 415.318V421H634.991V415.023C634.991 414.527 634.83 414.127 634.509 413.824C634.187 413.517 633.772 413.364 633.264 413.364C632.916 413.364 632.59 413.456 632.287 413.642C631.988 413.828 631.745 414.085 631.56 414.415C631.378 414.741 631.287 415.117 631.287 415.545V421H629.946ZM652.42 409.364V421H651.011V410.841H650.943L648.102 412.727V411.295L651.011 409.364H652.42ZM659.562 421.159C658.706 421.159 657.977 420.926 657.375 420.46C656.773 419.991 656.313 419.311 655.994 418.42C655.676 417.527 655.517 416.447 655.517 415.182C655.517 413.924 655.676 412.85 655.994 411.96C656.316 411.066 656.778 410.384 657.381 409.915C657.987 409.441 658.714 409.205 659.562 409.205C660.411 409.205 661.136 409.441 661.739 409.915C662.345 410.384 662.807 411.066 663.125 411.96C663.447 412.85 663.608 413.924 663.608 415.182C663.608 416.447 663.449 417.527 663.131 418.42C662.812 419.311 662.352 419.991 661.75 420.46C661.148 420.926 660.419 421.159 659.562 421.159ZM659.562 419.909C660.411 419.909 661.07 419.5 661.54 418.682C662.009 417.864 662.244 416.697 662.244 415.182C662.244 414.174 662.136 413.316 661.92 412.608C661.708 411.9 661.402 411.36 661 410.989C660.602 410.617 660.123 410.432 659.562 410.432C658.722 410.432 658.064 410.847 657.591 411.676C657.117 412.502 656.881 413.67 656.881 415.182C656.881 416.189 656.987 417.045 657.199 417.75C657.411 418.455 657.716 418.991 658.114 419.358C658.515 419.725 658.998 419.909 659.562 419.909ZM665.494 418.614V417.455L670.608 409.364H671.449V411.159H670.881L667.017 417.273V417.364H673.903V418.614H665.494ZM670.972 421V418.261V417.722V409.364H672.312V421H670.972Z" fill="black"/>
<path d="M206.864 332V302.909H223.696V305.295H209.52V316.247H222.375V318.634H209.52V332H206.864ZM232.304 302.909V332H229.776V302.909H232.304ZM252.858 323.662V310.182H255.386V332H252.858V328.378H252.659C252.148 329.495 251.338 330.428 250.23 331.176C249.122 331.915 247.768 332.284 246.168 332.284C244.776 332.284 243.54 331.981 242.46 331.375C241.381 330.759 240.533 329.86 239.918 328.676C239.302 327.492 238.994 326.039 238.994 324.315V310.182H241.523V324.159C241.523 325.864 242.025 327.237 243.028 328.278C244.032 329.311 245.32 329.827 246.892 329.827C247.877 329.827 248.824 329.59 249.733 329.116C250.642 328.643 251.39 327.952 251.977 327.043C252.564 326.124 252.858 324.997 252.858 323.662ZM262.08 332V310.182H264.538V313.534H264.722C265.158 312.436 265.915 311.55 266.995 310.878C268.084 310.196 269.315 309.855 270.688 309.855C270.897 309.855 271.129 309.86 271.384 309.869C271.64 309.879 271.853 309.888 272.023 309.898V312.469C271.91 312.45 271.711 312.421 271.427 312.384C271.143 312.346 270.835 312.327 270.504 312.327C269.367 312.327 268.354 312.568 267.464 313.051C266.583 313.525 265.887 314.183 265.376 315.026C264.864 315.868 264.609 316.83 264.609 317.909V332H262.08Z" fill="black"/>
</svg>
